<svg xmlns="http://www.w3.org/2000/svg" xmlns:xlink="http://www.w3.org/1999/xlink" viewBox="0 0 32 32"><defs><path id="a" d="M0 .047h24.587v16.988H0z"/><path id="c" d="M.637.473h15.394V18H.637z"/></defs><g fill="none" fill-rule="evenodd"><g transform="translate(0 .62)"><mask id="b" fill="#fff"><use xlink:href="#a"/></mask><path fill="#83BC4E" d="M24.59.05c-.17.34-.24.4-.37.61-.08.13-.29.35-.38.46-.42.48-1.1 1.06-1.62 1.61-.6.66-1.25 1.28-1.93 1.94l-.32.32c-.52.46-1.22 1-1.83 1.5a63.7 63.7 0 0 1-3.22 2.58l-.75.54c-4 2.93-8.87 5.43-13.97 7.41-.35.08-.16-.21 0-.21A60.6 60.6 0 0 1 24.59.05" mask="url(#b)"/></g><g transform="translate(5.333 12.62)"><mask id="d" fill="#fff"><use xlink:href="#c"/></mask><path fill="#3769B3" d="M6.47 5.67a9.98 9.98 0 0 0-1.18 2.68c2.84-.3 6.76-1.35 6.01-4.83-2.1-1.47-4.03.77-4.83 2.15M4.86 10.7c-.11 2.05.28 3.52 1.6 4.09 2.75 1.17 6.66-1.77 7.64-3.55.75.35 1.2 1.03 1.93 1.4-.52.94-1.26 1.53-1.93 2.15a11.18 11.18 0 0 1-5.27 2.8c-1.8.44-4.06.7-5.58-.22-.38-.23-.67-.63-.97-.97-1.13-1.25-1.8-3.1-1.61-5.7.14-1.97.97-4 1.93-5.47A10.18 10.18 0 0 1 9.9.5c3.27-.32 5.85 1.44 5.16 4.51-.1.5-.6 1.35-.96 1.83-.85 1.1-2.6 2.18-4.2 2.8-1.5.57-3.29.98-5.04 1.06" mask="url(#d)"/></g><path fill="#3769B3" d="M32 14.53c-.32.52-.62.97-1.07 1.5-.1.11-.2.38-.43.32-.66-.42-1.62-.9-2.58-.75-.89.13-1.32.84-1.72 1.4-.25 2.2 1.17 2.9 2.36 4.3.4.46.75 1.1 1.08 1.71.49.94.92 1.81.75 3.33-.43 3.68-5.6 5.24-9.35 3.66-.72-.31-1.3-.68-1.93-1.08.2-.42.63-.67.97-.97.32-.29.62-.58.96-.86.6.2 1.17.84 1.94.97 1.76.31 3.66-.6 3.43-2.8-.12-1.15-1.17-2.02-2.04-3-.94-1.06-2.13-2.29-2.25-3.97a5.03 5.03 0 0 1 1.82-4.09c.08-.06.15-.04.22-.1a6.93 6.93 0 0 1 7.84.43"/></g></svg>