<svg xmlns="http://www.w3.org/2000/svg" width="332" height="321" viewBox="0 0 332 321"><g fill-rule="evenodd" clip-rule="evenodd"><path fill="#83BC4E" d="M243.5 11.5c-1.585 3.231-2.166 3.75-3.416 5.708-.78 1.222-2.695 3.277-3.584 4.292-3.91 4.462-10.218 9.818-15 15-5.672 6.146-11.649 11.88-18 18-.997.961-1.777 1.928-3 3-4.845 4.245-11.291 9.236-17 14-9.378 7.825-19.464 16.273-30 24-2.335 1.712-4.355 3.06-7 5-37.221 27.295-82.51 50.547-130 69-3.287.729-1.531-1.987 0-2 59.65-68.018 134.632-120.702 227-156z"/><path fill="#3769B3" d="M109.5 222.5c-1.02 19.054 2.601 32.683 15 38 25.525 10.946 61.911-16.478 71-33 7.048 3.285 11.139 9.528 18 13-4.819 8.761-11.697 14.269-18 20-13.193 11.997-26.568 20.408-49 26-16.726 4.169-37.787 6.65-52-2-3.523-2.145-6.194-5.868-9-9-10.527-11.748-16.722-28.967-15-53 1.318-18.405 9.014-37.259 18-51 2.285-3.494 4.381-6.578 7-10 13.164-17.198 38.181-31.773 61-34 30.388-2.965 54.351 13.425 48 42-1.027 4.622-5.583 12.575-9 17-7.886 10.213-24.233 20.331-39 26-14.058 5.396-30.66 9.237-47 10zm15-47c-4.329 7.478-9.5 17.435-11 25 26.433-2.829 62.966-12.564 56-45-19.627-13.647-37.584 7.191-45 20z"/><path fill="#3769B3" d="M312.5 140.5c-2.959 4.893-5.761 9.093-10 14-.888 1.027-1.796 3.502-4 3-6.078-3.936-15.074-8.358-24-7-8.216 1.25-12.262 7.78-16 13-2.312 20.548 10.869 27.05 22 40 3.719 4.326 6.997 10.271 10 16 4.568 8.715 8.635 16.865 7 31-3.956 34.199-52.058 48.771-87 34-6.73-2.845-12.079-6.327-18-10 1.921-3.902 5.912-6.263 9-9 3.042-2.696 5.817-5.462 9-8 5.609 1.756 10.91 7.739 18 9 16.402 2.918 34.147-5.659 32-26-1.142-10.815-10.902-18.865-19-28-8.785-9.91-19.833-21.299-21-37-1.111-14.947 6.749-29.542 17-38 .75-.619 1.355-.382 2-1 3.395-3.252 17.743-8.147 26-9 20.15-2.081 34.976 3.794 47 13z"/></g></svg>
